<?xml version='1.0' encoding='iso-8859-1'?>
<svg version="1.1" xmlns="http://www.w3.org/2000/svg" viewBox="0 0 510.985 510.985" xmlns:xlink="http://www.w3.org/1999/xlink" enable-background="new 0 0 510.985 510.985">
  <g>
    <g>
      <path d="m397.923,91.92l-22.113-9.677h-65.885c-8.016-4.848-29.356-16.128-54.426-16.128-25.064,0-46.41,11.286-54.433,16.128h-65.872l-22.138,9.677-113.056,113.464 74.431,74.514 54.688-54.682v219.654h252.765v-219.609l54.65,54.644 74.451-74.521-113.062-113.464zm-44.296,5.691v331.891h-62.353v-303.487c12.557-7.646 21.717-16.383 24.444-28.404h37.909zm-101.277,44.622l3.149,1.405 3.149-1.418c10.034-4.529 19.635-8.866 28.028-13.535v300.817h-62.359v-300.689c8.392,4.65 17.986,8.929 28.033,13.42zm48.25-47.63c-2.996,11.529-17.635,19.679-45.133,32.186-27.517-12.385-42.137-20.497-45.114-32.173 7.55-4.356 25.249-13.145 45.133-13.145 19.878,0.006 37.577,8.775 45.114,13.132zm-80.895,31.547v303.353h-62.359v-331.892h37.89c2.701,12.149 11.879,20.918 24.469,28.539zm-145.261,132.025l-52.74-52.798 100.172-100.536 16.524-7.218h14.327v331.885h-8.246v-241.382l-70.037,70.049zm362.084,0l-70.011-70.018v241.345h-8.272v-331.891h14.352l16.498,7.224 100.191,100.536-52.758,52.804z"/>
      <path d="m115.847,156.611l3.258,3.258-51.808,51.808-3.258-3.258 51.808-51.808zm331.131,51.794l-3.251,3.258-51.859-51.756 3.251-3.258 51.859,51.756z"/>
    </g>
  </g>
</svg>
